#!OML:ASF X:\für Bonn\!DataBase\2005_08_10_Bjorn_Final\c3d\bjorn.ASF
:FULLY-SPECIFIED
:DEGREES
371
root 19.3561 19.3007 -1.46327 -10.6365 -78.7013 -340.381
lowerback 8.56182 0.892511 1.42373
upperback 10.3518 0.898405 -3.74266
thorax 6.16899 0.507556 -4.79014
lowerneck -2.91674 -3.20782 5.5642
upperneck -0.399257 -4.495 1.67864
head 0.271135 -2.25452 -0.44163
rclavicle -3.8763e-014 -9.74045e-015
rhumerus -23.4301 12.9455 -87.6697
rradius 33.748
rwrist -0.845096
rhand -12.3726 14.4509
rfingers 7.12502
rthumb 13.6979 -15.0783
lclavicle -3.8763e-014 -9.74045e-015
lhumerus -19.3984 -44.6121 76.9901
lradius 50.1208
lwrist -3.20793
lhand -25.7667 -6.09639
lfingers 7.12502
lthumb 0.77111 23.882
rfemur -13.5894 -9.64076 15.2823
rtibia 29.2326
rfoot -17.222 17.1068
rtoes 2.45055
lfemur -9.78038 8.04174 -12.4545
ltibia 27.1464
lfoot -10.3551 4.53748
ltoes -22.9828
372
root 19.2721 19.2962 -1.47325 -11.2223 -78.9609 -339.839
lowerback 7.86377 0.813814 1.24398
upperback 9.80591 0.82879 -3.80508
thorax 5.95071 0.468825 -4.73765
lowerneck -2.65527 -3.09069 5.53073
upperneck 0.431705 -4.33517 1.44161
head 0.482119 -2.15281 -0.514448
rclavicle -3.97569e-015 -2.3059e-014
rhumerus -24.3717 12.919 -88.0417
rradius 34.0088
rwrist -0.674567
rhand -12.2905 14.2969
rfingers 7.12502
rthumb 13.7771 -15.227
lclavicle -3.97569e-015 -2.3059e-014
lhumerus -21.2608 -44.0951 78.1043
lradius 50.1076
lwrist -3.31111
lhand -25.4691 -6.08315
lfingers 7.12502
lthumb 1.05849 23.894
rfemur -13.147 -9.68401 15.2573
rtibia 28.9684
rfoot -17.2818 17.486
rtoes 2.64848
lfemur -9.53152 7.9952 -12.4378
ltibia 27.3513
lfoot -10.3891 5.05239
ltoes -23.521
373
root 19.1893 19.2925 -1.48233 -11.7834 -79.2015 -339.301
lowerback 7.18671 0.735096 1.08042
upperback 9.26324 0.757625 -3.85828
thorax 5.72943 0.430026 -4.68581
lowerneck -2.42332 -2.97689 5.51905
upperneck 1.25309 -4.18189 1.18489
head 0.695825 -2.0569 -0.597687
rclavicle -9.93923e-016 1.03368e-014
rhumerus -25.27 12.8501 -88.38
rradius 34.2412
rwrist -0.521699
rhand -12.2931 14.2109
rfingers 7.12502
rthumb 13.7745 -15.3131
lclavicle -9.93923e-016 1.03368e-014
lhumerus -23.0118 -43.5235 79.1719
lradius 50.0591
lwrist -3.38656
lhand -25.2422 -6.20566
lfingers 7.12502
lthumb 1.27768 23.7703
rfemur -12.7264 -9.7699 15.2307
rtibia 28.6994
rfoot -17.3213 17.8657
rtoes 3.01606
lfemur -9.33699 7.95476 -12.4279
ltibia 27.5941
lfoot -10.3855 5.55631
ltoes -24.2645
374
root 19.1074 19.2877 -1.49201 -12.415 -79.4716 -338.669
lowerback 6.51942 0.669751 0.914483
upperback 8.72445 0.702167 -3.91488
thorax 5.51313 0.398965 -4.63782
lowerneck -2.2382 -2.86633 5.51097
upperneck 2.09714 -4.03785 0.968998
head 0.927005 -1.9667 -0.670514
rclavicle 6.75868e-015 1.66979e-014
rhumerus -26.0813 12.7775 -88.7048
rradius 34.4432
rwrist -0.387783
rhand -12.3217 14.147
rfingers 7.12502
rthumb 13.747 -15.3788
lclavicle 6.75868e-015 1.66979e-014
lhumerus -24.6683 -42.962 80.1441
lradius 50.0065
lwrist -3.43706
lhand -24.9108 -6.25434
lfingers 7.12502
lthumb 1.59767 23.7194
rfemur -12.3513 -9.84844 15.1998
rtibia 28.4462
rfoot -17.326 18.3034
rtoes 3.50014
lfemur -9.175 7.9221 -12.4347
ltibia 27.8698
lfoot -10.3989 6.10643
ltoes -24.6451
375
root 19.0263 19.2832 -1.50058 -13.1487 -79.7229 -337.934
lowerback 5.87252 0.603058 0.767506
upperback 8.21612 0.6427 -3.9844
thorax 5.32275 0.367314 -4.61585
lowerneck -2.17685 -2.75852 5.55754
upperneck 3.02254 -3.90791 0.704236
head 1.20544 -1.88334 -0.771967
rclavicle -2.0276e-014 -1.59028e-014
rhumerus -26.775 12.7405 -88.988
rradius 34.662
rwrist -0.32642
rhand -12.2616 14.0176
rfingers 7.12502
rthumb 13.8049 -15.5043
lclavicle -2.0276e-014 -1.59028e-014
lhumerus -26.125 -42.373 80.9978
lradius 49.8843
lwrist -3.47581
lhand -24.4534 -6.29105
lfingers 7.12502
lthumb 2.0395 23.679
rfemur -11.9768 -9.96785 15.1464
rtibia 28.1963
rfoot -17.3831 18.7098
rtoes 3.6177
lfemur -9.03546 7.82217 -12.4784
ltibia 28.1826
lfoot -10.4107 6.70405
ltoes -25.2679
376
root 18.9474 19.2788 -1.50924 -13.7994 -79.9778 -337.263
lowerback 5.26757 0.537924 0.641016
upperback 7.7018 0.583151 -4.03727
thorax 5.10583 0.335692 -4.58882
lowerneck -2.09293 -2.64505 5.56501
upperneck 3.86306 -3.76679 0.492572
head 1.45821 -1.7982 -0.848749
rclavicle -6.95746e-015 -2.82274e-014
rhumerus -27.3737 12.7462 -89.2301
rradius 34.8008
rwrist -0.259066
rhand -12.2527 13.971
rfingers 7.12502
rthumb 13.8135 -15.5504
lclavicle -6.95746e-015 -2.82274e-014
lhumerus -27.5248 -41.7614 81.8145
lradius 49.7927
lwrist -3.52319
lhand -23.9517 -6.32123
lfingers 7.12502
lthumb 2.52404 23.6436
rfemur -11.6422 -10.0661 15.1108
rtibia 27.9593
rfoot -17.3914 19.1395
rtoes 4.03774
lfemur -8.94446 7.75614 -12.5104
ltibia 28.5354
lfoot -10.3782 7.3064
ltoes -25.7722
377
root 18.8694 19.2741 -1.51691 -14.6332 -80.251 -336.392
lowerback 4.6691 0.478905 0.518864
upperback 7.19927 0.529837 -4.10659
thorax 4.90202 0.307547 -4.58284
lowerneck -1.94559 -2.52747 5.62035
upperneck 4.56215 -3.61225 0.252663
head 1.65642 -1.71122 -0.939152
rclavicle 9.54166e-015 -3.45885e-014
rhumerus -27.9137 12.6927 -89.4533
rradius 34.9748
rwrist -0.157935
rhand -12.1876 13.8797
rfingers 7.12502
rthumb 13.8762 -15.6374
lclavicle 9.54166e-015 -3.45885e-014
lhumerus -28.8379 -41.092 82.5315
lradius 49.6817
lwrist -3.705
lhand -23.5544 -6.51294
lfingers 7.12502
lthumb 2.9077 23.447
rfemur -11.3338 -10.0903 15.0503
rtibia 27.7282
rfoot -17.3979 19.5182
rtoes 4.39758
lfemur -8.87963 7.67911 -12.5778
ltibia 28.9241
lfoot -10.3864 7.89436
ltoes -25.9344
378
root 18.7937 19.2677 -1.52472 -15.5032 -80.5006 -335.484
lowerback 4.11175 0.417739 0.386858
upperback 6.70528 0.470437 -4.15451
thorax 4.68573 0.274752 -4.54966
lowerneck -1.69081 -2.42164 5.63691
upperneck 5.0812 -3.4603 0.0313193
head 1.78 -1.63107 -1.01252
rclavicle 1.39149e-015 2.78299e-014
rhumerus -28.4239 12.603 -89.6075
rradius 35.2146
rwrist -0.064613
rhand -12.0286 13.7934
rfingers 7.12502
rthumb 14.0294 -15.7131
lclavicle 1.39149e-015 2.78299e-014
lhumerus -30.0491 -40.3745 83.2216
lradius 49.5222
lwrist -3.91577
lhand -23.2603 -6.78752
lfingers 7.12502
lthumb 3.19168 23.1683
rfemur -11.0349 -10.1527 14.9875
rtibia 27.5058
rfoot -17.4093 19.9154
rtoes 4.68706
lfemur -8.85654 7.56798 -12.6573
ltibia 29.3544
lfoot -10.3787 8.50152
ltoes -26.1838
379
root 18.7198 19.2617 -1.53208 -16.4571 -80.7608 -334.484
lowerback 3.59029 0.35353 0.264092
upperback 6.20982 0.404539 -4.2157
thorax 4.45 0.238822 -4.53657
lowerneck -1.31798 -2.30435 5.72551
upperneck 5.42706 -3.28171 -0.217678
head 1.82702 -1.54143 -1.10201
rclavicle -3.99557e-014 1.03368e-014
rhumerus -28.9194 12.5188 -89.7585
rradius 35.4774
rwrist 0.124878
rhand -11.8618 13.7452
rfingers 7.12502
rthumb 14.1901 -15.7501
lclavicle -3.99557e-014 1.03368e-014
lhumerus -31.2176 -39.6535 83.8276
lradius 49.3517
lwrist -4.18331
lhand -23.1443 -7.139
lfingers 7.12502
lthumb 3.30376 22.8151
rfemur -10.7483 -10.0814 14.9225
rtibia 27.287
rfoot -17.4667 20.2046
rtoes 4.9944
lfemur -8.86189 7.44814 -12.7598
ltibia 29.8252
lfoot -10.3696 9.16637
ltoes -26.49
380
root 18.6479 19.2551 -1.53942 -17.5596 -81.0327 -333.332
lowerback 3.10524 0.307774 0.158817
upperback 5.70329 0.360714 -4.29177
thorax 4.1866 0.214261 -4.54959
lowerneck -0.835364 -2.2041 5.81976
upperneck 5.68266 -3.1189 -0.423272
head 1.82609 -1.46098 -1.176
rclavicle -2.14687e-014 -1.35174e-014
rhumerus -29.4878 12.3978 -89.915
rradius 35.8377
rwrist 0.222995
rhand -11.6648 13.7266
rfingers 7.12502
rthumb 14.38 -15.7553
lclavicle -2.14687e-014 -1.35174e-014
lhumerus -32.3308 -38.9368 84.3851
lradius 49.1357
lwrist -4.47641
lhand -23.1549 -7.53494
lfingers 7.12502
lthumb 3.29347 22.4194
rfemur -10.4813 -9.93666 14.8507
rtibia 27.0762
rfoot -17.5009 20.4322
rtoes 5.35288
lfemur -8.90109 7.35324 -12.871
ltibia 30.3403
lfoot -10.3633 9.79326
ltoes -26.6037
381
root 18.577 19.2494 -1.54556 -18.7059 -81.3011 -332.129
lowerback 2.64396 0.256036 0.0368841
upperback 5.20403 0.305913 -4.32657
thorax 3.91774 0.18241 -4.51048
lowerneck -0.402996 -2.09931 5.85423
upperneck 5.96358 -2.9501 -0.658981
head 1.84335 -1.37876 -1.25127
rclavicle -5.96354e-016 1.59028e-015
rhumerus -30.0503 12.3476 -89.979
rradius 36.2647
rwrist 0.331709
rhand -11.4092 13.7094
rfingers 7.12502
rthumb 14.6262 -15.7548
lclavicle -5.96354e-016 1.59028e-015
lhumerus -33.3609 -38.1387 84.9393
lradius 48.8749
lwrist -4.89138
lhand -23.2313 -7.90494
lfingers 7.12502
lthumb 3.21973 22.0505
rfemur -10.2251 -9.80147 14.7835
rtibia 26.87
rfoot -17.5744 20.6497
rtoes 5.59547
lfemur -8.9801 7.27591 -12.9915
ltibia 30.8984
lfoot -10.3591 10.41
ltoes -26.8193
382
root 18.5068 19.242 -1.55126 -20.0264 -81.5407 -330.753
lowerback 2.20315 0.210148 -0.0540539
upperback 4.70431 0.256683 -4.40636
thorax 3.64011 0.154693 -4.53693
lowerneck 0.0482914 -2.00425 6.02783
upperneck 6.26592 -2.79251 -0.970678
head 1.86261 -1.30072 -1.37598
rclavicle 1.07344e-014 -1.66979e-014
rhumerus -30.6108 12.3196 -90.097
rradius 36.6927
rwrist 0.385864
rhand -11.1807 13.6694
rfingers 7.12502
rthumb 14.8465 -15.7787
lclavicle 1.07344e-014 -1.66979e-014
lhumerus -34.3356 -37.4096 85.3923
lradius 48.5652
lwrist -5.30007
lhand -23.3927 -8.23582
lfingers 7.12502
lthumb 3.06389 21.7219
rfemur -9.96795 -9.66087 14.6814
rtibia 26.661
rfoot -17.6092 20.8748
rtoes 6.04637
lfemur -9.09168 7.1798 -13.1446
ltibia 31.5063
lfoot -10.3614 11.0203
ltoes -26.8711
383
root 18.4378 19.2343 -1.55623 -21.3157 -81.7956 -329.413
lowerback 1.77676 0.170836 -0.136449
upperback 4.23122 0.213991 -4.44354
thorax 3.38371 0.129816 -4.52431
lowerneck 0.299226 -1.90553 6.14175
upperneck 6.76544 -2.64401 -1.29845
head 1.98271 -1.22578 -1.50334
rclavicle -3.04141e-014 -2.94201e-014
rhumerus -31.1342 12.3597 -90.1496
rradius 37.1531
rwrist 0.368393
rhand -10.9356 13.6112
rfingers 7.12502
rthumb 15.0826 -15.8193
lclavicle -3.04141e-014 -2.94201e-014
lhumerus -35.2298 -36.6389 85.8358
lradius 48.2489
lwrist -5.73096
lhand -23.5161 -8.53334
lfingers 7.12502
lthumb 2.94465 21.4261
rfemur -9.7049 -9.50692 14.607
rtibia 26.4487
rfoot -17.6809 21.0571
rtoes 6.19999
lfemur -9.23055 7.16546 -13.2726
ltibia 32.1614
lfoot -10.2692 11.6178
ltoes -27.2442
